<svg width="184" height="151" viewBox="0 0 184 151" fill="none" xmlns="http://www.w3.org/2000/svg">
<path d="M6.5419 53.6447L6.8688 54.3072C9.59255 59.8271 10.3456 66.1127 9.00288 72.1198L8.06747 77.1477C7.48195 80.295 7.18732 83.4894 7.18732 86.6906V88.2217C7.18732 90.6515 7.42819 93.0754 7.90639 95.4577C8.63324 99.0786 9.90149 102.569 11.6685 105.813L14.3212 110.681C15.7874 113.372 17.4814 115.933 19.3848 118.335C21.6221 121.158 24.138 123.748 26.8945 126.067L32.0865 130.435L43.4986 137.575L46.7655 139.074C51.8409 141.403 57.1024 143.303 62.4949 144.753L69.4352 146.62L79.5504 148.048L92.2594 149H95.1085C99.7732 149 104.431 148.652 109.044 147.958C114.959 147.068 120.775 145.613 126.412 143.615L129.349 142.573L139.205 137.575L146.43 133.155C149.39 131.344 152.209 129.313 154.865 127.079L156.373 125.81C158.927 123.662 161.257 121.262 163.33 118.647C165.397 116.039 167.196 113.23 168.702 110.263L171.949 103.862C172.942 101.904 173.773 99.8679 174.433 97.774C175.666 93.8646 176.294 89.7896 176.294 85.6903V85.275C176.294 83.0143 176.115 80.7571 175.759 78.5246L174.738 72.1198C173.219 66.0818 173.621 59.7207 175.886 53.9214L177.331 50.222L179.587 41.2014C180.502 37.5425 181.1 33.8115 181.373 30.0499L181.589 27.0788C181.862 23.3237 181.64 19.5491 180.929 15.8518L179.942 10.7201C179.759 9.76759 179.43 8.8492 178.965 7.9975C177.319 4.97513 174.152 3.09425 170.71 3.09425H168.75C167.391 3.09425 166.04 3.3126 164.749 3.74096L154.507 7.14057L141.28 12.853L132.98 16.8994L122.605 23.0879C121.774 23.5455 120.796 23.6584 119.883 23.4022L113.446 21.5973C112.464 21.322 111.463 21.1223 110.45 21.0001L102.115 19.9936L91.4813 19.0415L81.366 19.5176L71.5101 21.1837L63.8547 23.3917C62.9438 23.6544 61.9659 23.5451 61.1354 23.0879L51.2795 16.8994L42.9798 12.853L30.5303 7.14057L19.8963 3.09425L17.4425 2.45787C12.1049 1.07357 6.60597 4.05458 4.85303 9.28275L3.79258 13.7947C2.60152 18.8624 2 24.0508 2 29.2566V29.6851C2 33.8455 2.4105 37.9957 3.22553 42.0755L4.10533 46.4794C4.60166 48.9638 5.4208 51.3727 6.5419 53.6447Z" stroke="#857258" stroke-width="4"/>
<path d="M27.7031 86.7656C27.651 86.7656 27.5208 86.6875 27.3125 86.5312C27.1042 86.3229 27 86.1406 27 85.9844C26.9479 85.9844 26.9219 85.9323 26.9219 85.8281V85.4375C26.9219 85.3854 26.9479 85.3333 27 85.2812C27.5729 84.7083 28.0417 84.2917 28.4062 84.0312C28.8229 83.7708 29.3698 83.6406 30.0469 83.6406C30.2552 83.6406 30.4375 83.6927 30.5938 83.7969C30.8021 83.901 30.9583 84.0052 31.0625 84.1094C31.1667 84.2135 31.2708 84.3177 31.375 84.4219C31.5312 84.526 31.6875 84.5781 31.8438 84.5781C32 84.5781 32.3125 84.3438 32.7812 83.875C33.25 83.3542 33.875 82.7292 34.6562 82C35.4375 81.2708 36.401 80.4896 37.5469 79.6562C38.6927 78.7708 39.9688 77.9635 41.375 77.2344C42.8333 76.5052 44.3958 75.9062 46.0625 75.4375C47.7812 74.9167 49.6562 74.6562 51.6875 74.6562H52.1562C52.3646 74.7083 52.7812 74.8125 53.4062 74.9688C54.0833 75.0729 54.7865 75.2292 55.5156 75.4375C56.2448 75.5938 56.9219 75.75 57.5469 75.9062C58.224 76.0104 58.6927 76.0885 58.9531 76.1406C59.0052 76.1927 59.1094 76.2969 59.2656 76.4531C59.4219 76.5573 59.5781 76.6875 59.7344 76.8438C59.8906 76.9479 60.0208 77.0781 60.125 77.2344C60.2812 77.3906 60.3854 77.5208 60.4375 77.625C60.4375 77.6771 60.4635 77.7552 60.5156 77.8594C60.5156 77.8594 60.5156 77.8854 60.5156 77.9375C60.5677 77.9896 60.5938 78.0156 60.5938 78.0156L60.5156 78.1719C60.5156 78.1719 60.5156 78.1979 60.5156 78.25C60.4635 78.3021 60.4375 78.3542 60.4375 78.4062C60.3854 78.5625 60.2552 78.7448 60.0469 78.9531C59.8385 79.1094 59.7344 79.1875 59.7344 79.1875H45.9844C44.8385 79.1875 43.5885 79.526 42.2344 80.2031C40.9323 80.8281 39.6823 81.6615 38.4844 82.7031C37.3385 83.6927 36.375 84.8385 35.5938 86.1406C34.8646 87.3906 34.5 88.6146 34.5 89.8125V100.906C33.9271 100.906 33.5104 100.984 33.25 101.141C32.9896 101.245 32.7552 101.375 32.5469 101.531C32.3906 101.688 32.2083 101.818 32 101.922C31.7917 102.026 31.5052 102.078 31.1406 102.078H30.9844C30.9323 102.078 30.8802 102.052 30.8281 102C30.6198 101.948 30.4375 101.844 30.2812 101.688C30.125 101.479 30.0469 101.349 30.0469 101.297L27.7031 86.7656ZM85.6719 85.2031C84.1094 85.2031 82.7552 85.4896 81.6094 86.0625C80.5156 86.6354 79.526 87.3385 78.6406 88.1719C77.7552 89.0052 77 89.9427 76.375 90.9844C75.75 91.974 75.125 92.9115 74.5 93.7969C73.875 94.6302 73.224 95.3333 72.5469 95.9062C71.8698 96.4792 71.0885 96.7656 70.2031 96.7656C69.5781 96.7656 69.0833 96.5052 68.7188 95.9844C68.4062 95.4635 68.1719 94.9167 68.0156 94.3438C67.3385 92.1042 66.6354 89.7083 65.9062 87.1562C65.2292 84.5521 64.5781 81.9219 63.9531 79.2656C63.3281 76.6094 62.8073 73.9531 62.3906 71.2969C61.974 68.5885 61.7656 66.0104 61.7656 63.5625V63.0938C61.7656 62.8333 61.7656 62.5729 61.7656 62.3125C61.8177 62 61.8438 61.7396 61.8438 61.5312V60.9062C61.9479 60.4375 62.2083 60.2031 62.625 60.2031C63.0417 60.151 63.4323 60.125 63.7969 60.125C63.849 60.125 64.0312 60.125 64.3438 60.125C64.7083 60.125 64.9167 60.125 64.9688 60.125C65.0729 60.9062 65.2552 62.1042 65.5156 63.7188C65.776 65.3333 66.0885 67.1302 66.4531 69.1094C66.8698 71.0885 67.2865 73.1458 67.7031 75.2812C68.1719 77.3646 68.6406 79.2656 69.1094 80.9844C69.6302 82.7031 70.151 84.1094 70.6719 85.2031C71.1927 86.2969 71.6875 86.8438 72.1562 86.8438C72.9375 86.8438 73.849 86.5312 74.8906 85.9062C75.9323 85.2812 77.026 84.5781 78.1719 83.7969C79.3698 83.0156 80.6198 82.2865 81.9219 81.6094C83.276 80.9323 84.6823 80.5938 86.1406 80.5938C86.4531 80.5938 86.8698 80.6198 87.3906 80.6719C87.9115 80.6719 88.4323 80.6979 88.9531 80.75C89.526 80.8021 90.0469 80.8802 90.5156 80.9844C91.0365 81.0885 91.375 81.2448 91.5312 81.4531L98.4844 88.3281C98.901 88.7448 99.2656 89.5 99.5781 90.5938C99.8906 91.6875 100.151 92.8594 100.359 94.1094C100.568 95.3594 100.698 96.5573 100.75 97.7031C100.802 98.7969 100.828 99.6562 100.828 100.281C100.828 101.01 100.594 101.505 100.125 101.766C99.6562 101.974 99.1094 102.078 98.4844 102.078C97.651 102.078 97.0521 101.661 96.6875 100.828C96.3229 99.9948 95.9844 98.9531 95.6719 97.7031C95.4115 96.401 95.099 95.0469 94.7344 93.6406C94.3698 92.1823 93.849 90.8281 93.1719 89.5781C92.4948 88.276 91.5573 87.2344 90.3594 86.4531C89.2135 85.6198 87.651 85.2031 85.6719 85.2031ZM81.6094 119.891C81.6094 118.797 81.6354 117.833 81.6875 117C81.7396 116.219 81.974 115.281 82.3906 114.188C82.4427 114.188 82.5208 114.161 82.625 114.109C82.6771 114.109 82.7292 114.109 82.7812 114.109C82.7812 114.109 82.8073 114.109 82.8594 114.109C82.9115 114.161 82.9635 114.188 83.0156 114.188C83.0677 114.188 83.1198 114.188 83.1719 114.188C83.224 114.24 83.3542 114.37 83.5625 114.578L83.9531 114.969C83.4844 120.073 84.474 123.875 86.9219 126.375C89.3698 128.927 93.0938 130.203 98.0938 130.203C100.385 130.203 102.234 129.708 103.641 128.719C105.099 127.781 106.219 126.531 107 124.969C107.833 123.406 108.38 121.635 108.641 119.656C108.953 117.729 109.109 115.776 109.109 113.797C109.109 111.349 108.875 108.927 108.406 106.531C107.99 104.135 107.495 101.766 106.922 99.4219C106.349 97.026 105.75 94.6823 105.125 92.3906C104.552 90.0469 104.083 87.6771 103.719 85.2812C103.719 84.9688 103.771 84.6823 103.875 84.4219C104.031 84.1615 104.214 83.9271 104.422 83.7188C104.63 83.4583 104.891 83.276 105.203 83.1719C105.516 83.0156 105.802 82.9375 106.062 82.9375C106.74 82.9375 107.339 83.3281 107.859 84.1094C108.432 84.8385 108.927 85.8281 109.344 87.0781C109.812 88.276 110.203 89.6302 110.516 91.1406C110.828 92.651 111.115 94.1354 111.375 95.5938C111.688 97.0521 111.948 98.4323 112.156 99.7344C112.365 100.984 112.599 101.974 112.859 102.703V104.578C112.859 105.464 112.859 106.375 112.859 107.312C112.859 108.302 112.859 109.24 112.859 110.125V111.922C112.859 113.745 112.833 115.542 112.781 117.312C112.729 119.135 112.521 120.854 112.156 122.469C111.844 124.135 111.375 125.672 110.75 127.078C110.125 128.484 109.266 129.708 108.172 130.75C107.078 131.792 105.724 132.599 104.109 133.172C102.547 133.745 100.646 134.031 98.4062 134.031C96.0104 134.031 93.7969 133.745 91.7656 133.172C89.7344 132.651 87.9635 131.818 86.4531 130.672C84.9427 129.578 83.7708 128.12 82.9375 126.297C82.0521 124.526 81.6094 122.391 81.6094 119.891ZM101.375 71.2188C101.375 70.5938 101.635 70.125 102.156 69.8125C102.677 69.4479 103.198 69.2656 103.719 69.2656C104.292 69.2656 104.812 69.526 105.281 70.0469C105.802 70.5156 106.062 71.0365 106.062 71.6094C106.062 72.1823 105.802 72.7031 105.281 73.1719C104.76 73.6406 104.214 73.875 103.641 73.875C102.911 73.875 102.339 73.5885 101.922 73.0156C101.557 72.4427 101.375 71.8438 101.375 71.2188ZM124.266 88.9531C124.005 88.9531 123.667 89.0052 123.25 89.1094C122.885 89.1615 122.703 89.3958 122.703 89.8125V100.438C122.703 100.49 122.521 100.62 122.156 100.828C121.792 101.036 121.505 101.193 121.297 101.297H120.516C120.047 101.036 119.63 100.854 119.266 100.75C119.005 100.542 118.771 100.359 118.562 100.203C118.354 100.047 118.25 99.8906 118.25 99.7344V90.5938C118.146 90.5938 117.911 90.4896 117.547 90.2812C117.234 90.0729 116.896 89.8385 116.531 89.5781C116.219 89.3177 115.906 89.0573 115.594 88.7969C115.333 88.4844 115.203 88.1979 115.203 87.9375C115.203 87.3125 115.464 86.6615 115.984 85.9844C116.505 85.3073 117 84.8125 117.469 84.5V83.4062C117.469 82.8333 117.469 82.2344 117.469 81.6094C117.469 80.9844 117.469 80.4115 117.469 79.8906V78.7969C117.469 77.2865 117.469 75.9323 117.469 74.7344C117.469 73.4844 117.417 72.3125 117.312 71.2188C117.208 70.0729 117.052 68.875 116.844 67.625C116.635 66.3229 116.323 64.8646 115.906 63.25C115.906 63.0417 115.984 62.8073 116.141 62.5469C116.297 62.2344 116.479 61.9479 116.688 61.6875C116.896 61.375 117.13 61.1406 117.391 60.9844C117.703 60.776 117.99 60.75 118.25 60.9062C118.823 61.1667 119.344 61.7917 119.812 62.7812C120.281 63.7708 120.672 64.9688 120.984 66.375C121.297 67.7812 121.557 69.3177 121.766 70.9844C121.974 72.599 122.13 74.1615 122.234 75.6719C122.391 77.1302 122.495 78.4583 122.547 79.6562C122.651 80.8542 122.703 81.7135 122.703 82.2344C123.536 81.5573 124.422 81.0104 125.359 80.5938C126.297 80.125 127.234 79.6823 128.172 79.2656C129.161 78.849 130.099 78.4062 130.984 77.9375C131.87 77.4688 132.677 76.8698 133.406 76.1406C133.719 75.8281 134.057 75.3854 134.422 74.8125C134.786 74.1875 135.151 73.5885 135.516 73.0156C135.88 72.3906 136.297 71.8698 136.766 71.4531C137.234 71.0365 137.781 70.8281 138.406 70.8281C138.719 70.8281 138.953 70.9062 139.109 71.0625C139.318 71.1667 139.448 71.349 139.5 71.6094C139.552 71.8177 139.578 72.0521 139.578 72.3125V73.0156C139.578 74.3698 139.214 75.5938 138.484 76.6875C137.755 77.7812 136.844 78.7969 135.75 79.7344C134.708 80.6198 133.562 81.4271 132.312 82.1562C131.062 82.8333 129.917 83.3542 128.875 83.7188C130.958 86.1667 132.938 88.224 134.812 89.8906C136.688 91.5573 138.641 92.9896 140.672 94.1875C142.755 95.3333 145.047 96.2969 147.547 97.0781C150.047 97.8073 152.964 98.4323 156.297 98.9531C156.922 98.9531 157.339 99.0833 157.547 99.3438C157.807 99.6042 157.938 99.9688 157.938 100.438C157.938 100.49 157.911 100.646 157.859 100.906C157.807 101.115 157.781 101.245 157.781 101.297C156.844 101.609 156.01 101.818 155.281 101.922C154.552 102.026 153.719 102.078 152.781 102.078C151.583 102.078 150.307 102.026 148.953 101.922C147.599 101.818 146.219 101.661 144.812 101.453C143.458 101.193 142.13 100.88 140.828 100.516C139.578 100.099 138.38 99.5781 137.234 98.9531C136.089 98.3281 135.047 97.4688 134.109 96.375C133.172 95.2812 132.208 94.1875 131.219 93.0938C130.281 91.9479 129.24 90.9844 128.094 90.2031C127 89.3698 125.724 88.9531 124.266 88.9531Z" fill="#857258"/>
</svg>
